<svg version="1.1" id="Layer_1" xmlns="http://www.w3.org/2000/svg" x="0" y="0" viewBox="0 0 130 39" style="enable-background:new 0 0 130 39" xml:space="preserve"><style>.st0{fill:#fff}</style><path d="M130 35.1c0 2.2-1.7 3.9-3.7 3.9H3.7c-2 0-3.7-1.7-3.7-3.9V3.9C0 1.8 1.7 0 3.7 0h122.5c2.1 0 3.7 1.8 3.7 3.9l.1 31.2"/><path class="st0" d="M28.5 19.3c0-3.1 2.6-4.7 2.7-4.7-1.5-2.2-3.8-2.4-4.6-2.5-1.9-.2-3.8 1.1-4.8 1.1s-2.5-1.1-4.1-1.1c-2.1 0-4 1.2-5.1 3.1-2.2 3.8-.6 9.5 1.6 12.6 1.1 1.5 2.3 3.2 3.9 3.2 1.6-.1 2.2-1 4.1-1 1.9 0 2.5 1 4.1 1 1.7 0 2.8-1.5 3.8-3.1 1.2-1.7 1.7-3.5 1.7-3.5 0-.1-3.2-1.3-3.3-5.1M25.4 10c.9-1.1 1.4-2.5 1.3-4-1.2.1-2.8.9-3.7 1.9-.8.9-1.5 2.4-1.3 3.8 1.4.2 2.8-.6 3.7-1.7M51.5 30.7h-2.2l-1.2-3.8h-4.2l-1.2 3.8h-2.2l4.2-13h2.6l4.2 13zm-3.8-5.4-1.1-3.4c-.1-.3-.3-1.2-.7-2.4-.1.6-.3 1.4-.6 2.4l-1.1 3.4h3.5zM62.3 25.9c0 1.6-.4 2.9-1.3 3.8-.8.8-1.7 1.2-2.9 1.2s-2.1-.4-2.7-1.3v4.9h-2.1v-10c0-1 0-2-.1-3.1H55l.1 1.5c.7-1.1 1.7-1.7 3.2-1.7 1.1 0 2 .4 2.8 1.3.8.9 1.2 2 1.2 3.4m-2.2.1c0-.9-.2-1.7-.6-2.3-.5-.6-1.1-.9-1.8-.9-.5 0-1 .2-1.4.5-.4.3-.7.8-.8 1.3-.1.3-.1.5-.1.6v1.6c0 .7.2 1.3.6 1.7.4.5 1 .7 1.6.7.8 0 1.4-.3 1.8-.9.5-.5.7-1.3.7-2.3M73 25.9c0 1.6-.4 2.9-1.3 3.8-.7.8-1.7 1.3-2.8 1.3-1.2 0-2.1-.4-2.7-1.3v4.9h-2.1V24.5c0-1 0-2-.1-3.1h1.8l.1 1.5c.7-1.1 1.7-1.7 3.2-1.7 1.1 0 2 .4 2.8 1.3.8.9 1.1 2 1.1 3.4m-2.1.1c0-.9-.2-1.7-.6-2.3-.4-.6-1.1-.9-1.8-.9-.5 0-1 .2-1.4.5-.4.3-.7.8-.8 1.3-.1.3-.1.5-.1.6v1.6c0 .7.2 1.3.6 1.7.4.5 1 .7 1.6.7.8 0 1.4-.3 1.8-.9.5-.5.7-1.3.7-2.3M85.1 27.1c0 1.1-.4 2-1.2 2.7-.8.8-2 1.1-3.5 1.1-1.4 0-2.5-.3-3.4-.8l.5-1.7c.9.5 1.9.8 3 .8.8 0 1.4-.2 1.8-.5.4-.4.7-.8.7-1.4 0-.5-.2-1-.5-1.3-.4-.4-1-.7-1.8-1-2.3-.8-3.4-2.1-3.4-3.7 0-1.1.4-1.9 1.2-2.6.8-.7 1.9-1 3.2-1 1.2 0 2.2.2 2.9.6l-.5 1.7c-.7-.4-1.6-.6-2.5-.6-.7 0-1.3.2-1.7.5-.3.3-.5.7-.5 1.2s.2.9.6 1.3c.3.3 1 .6 1.9 1 1.1.5 1.9 1 2.5 1.6.4.4.7 1.2.7 2.1M92 22.9h-2.3v4.6c0 1.2.4 1.7 1.2 1.7.4 0 .7 0 .9-.1l.1 1.6c-.4.2-1 .2-1.6.2-.8 0-1.5-.3-1.9-.8-.5-.5-.7-1.3-.7-2.5v-4.7h-1.4v-1.6h1.4v-1.7l2-.6v2.3H92v1.6zM102.3 26c0 1.4-.4 2.6-1.2 3.5-.9 1-2 1.4-3.4 1.4s-2.5-.5-3.3-1.4c-.8-.9-1.2-2.1-1.2-3.5 0-1.5.4-2.6 1.3-3.6.8-.9 2-1.4 3.4-1.4s2.5.5 3.3 1.4c.7 1 1.1 2.2 1.1 3.6m-2.1 0c0-.9-.2-1.6-.6-2.2-.4-.7-1.1-1.1-1.9-1.1-.8 0-1.5.4-1.9 1.1-.4.6-.6 1.4-.6 2.2 0 .9.2 1.6.6 2.2.5.7 1.1 1.1 1.9 1.1.8 0 1.4-.4 1.9-1.1.4-.6.6-1.3.6-2.2M109.1 23.2c-.2 0-.4-.1-.7-.1-.7 0-1.3.3-1.7.8-.3.5-.5 1.1-.5 1.9v4.9h-2.1v-6.4c0-1.1 0-2.1-.1-2.9h1.8l.1 1.8h.1c.2-.6.6-1.1 1-1.5.5-.3 1-.5 1.5-.5h.5l.1 2zM118.4 25.6c0 .4 0 .7-.1.9h-6.2c0 .9.3 1.6.9 2.1.5.4 1.2.7 2 .7.9 0 1.8-.1 2.5-.4l.3 1.4c-.9.4-1.9.6-3.1.6-1.5 0-2.6-.4-3.4-1.3-.8-.9-1.2-2-1.2-3.4s.4-2.6 1.2-3.5c.8-1 1.9-1.5 3.3-1.5s2.4.5 3.1 1.5c.4.8.7 1.7.7 2.9m-2-.5c0-.6-.1-1.1-.4-1.6-.4-.6-.9-.9-1.7-.9-.7 0-1.2.3-1.7.8-.3.5-.6 1-.6 1.6h4.4zM46.7 13.1h-1.1l-.6-1.9h-2l-.6 1.9h-1.1l2.1-6.4h1.3l2 6.4zm-1.8-2.7-.5-1.7c-.1-.2-.2-.6-.3-1.2-.1.3-.2.7-.3 1.2l-.5 1.7h1.6zM51.9 8.5l-1.7 4.6h-1l-1.7-4.6h1.1l.8 2.4.3 1.2c.1-.3.2-.7.3-1.2l.8-2.4h1.1zM56.5 13.1h-.9l-.1-.5c-.3.4-.8.6-1.3.6-.4 0-.8-.1-1.1-.4-.2-.3-.4-.6-.4-.9 0-.6.2-1 .7-1.3.5-.3 1.1-.4 2-.4V10c0-.6-.3-.9-1-.9-.5 0-.9.1-1.2.3l-.2-.7c.4-.3 1-.4 1.6-.4 1.2 0 1.8.6 1.8 1.9V12c0 .5.1.8.1 1.1m-1.1-1.6v-.7c-1.1 0-1.7.3-1.7.9 0 .2.1.4.2.5.1.1.3.2.5.2s.4-.1.6-.2c.2-.1.3-.3.4-.5v-.2zM59.4 7.1c0 .2-.1.3-.2.4-.1.1-.3.2-.5.2s-.3-.1-.4-.2c-.1-.1-.2-.3-.2-.4 0-.2.1-.3.2-.4.1-.1.3-.2.4-.2.2 0 .3.1.4.2.2.1.3.2.3.4m-.2 6h-1V8.5h1v4.6zM61.1 6.4h1v6.7h-1zM67.4 13.1h-.9l-.1-.5c-.4.4-.8.6-1.4.6-.4 0-.8-.1-1.1-.4-.2-.3-.4-.6-.4-.9 0-.6.2-1 .7-1.3.5-.3 1.1-.4 2-.4V10c0-.6-.3-.9-1-.9-.5 0-.9.1-1.2.3l-.2-.7c.4-.3 1-.4 1.6-.4 1.2 0 1.8.6 1.8 1.9V12c.1.5.1.8.2 1.1m-1.1-1.6v-.7c-1.1 0-1.7.3-1.7.9 0 .2.1.4.2.5.1.1.3.2.5.2s.4-.1.6-.2c.2-.1.3-.3.4-.5v-.2zM73.5 10.7c0 .8-.2 1.4-.6 1.9-.4.4-.8.6-1.4.6-.7 0-1.1-.3-1.4-.8l-.1.7h-1V6.4h1v2.8c.3-.5.8-.8 1.5-.8.6 0 1 .2 1.4.6.4.5.6 1 .6 1.7m-1.1.1c0-.4-.1-.8-.3-1.1-.2-.3-.5-.5-.9-.5-.3 0-.5.1-.7.2-.2.2-.3.4-.4.7v1.1c0 .3.1.6.3.8.2.2.5.3.8.3.4 0 .7-.1.9-.4.2-.2.3-.6.3-1.1M75 6.4h1v6.7h-1zM81.6 10.6v.5h-3.1c0 .5.2.8.4 1 .3.2.6.3 1 .3.5 0 .9-.1 1.2-.2l.2.7c-.4.2-.9.3-1.5.3-.7 0-1.3-.2-1.7-.6-.4-.4-.6-1-.6-1.7s.2-1.3.6-1.7c.4-.5.9-.7 1.6-.7.7 0 1.2.2 1.5.7.3.3.4.8.4 1.4m-1-.3c0-.3-.1-.6-.2-.8-.2-.3-.4-.4-.8-.4-.3 0-.6.1-.8.4-.2.2-.3.5-.3.8h2.1zM90.1 10.8c0 .7-.2 1.3-.6 1.7-.4.5-1 .7-1.7.7s-1.2-.2-1.6-.7c-.4-.4-.6-1-.6-1.7s.2-1.3.6-1.8c.4-.5 1-.7 1.7-.7s1.2.2 1.6.7c.4.5.6 1.1.6 1.8m-1.1 0c0-.4-.1-.8-.3-1.1-.2-.4-.5-.5-.9-.5s-.7.2-.9.5c-.2.3-.3.7-.3 1.1 0 .4.1.8.3 1.1.2.4.5.5.9.5s.7-.2.9-.6c.2-.2.3-.6.3-1M95.6 13.1h-1v-2.6c0-.8-.3-1.2-.9-1.2-.3 0-.5.1-.7.3-.2.2-.3.5-.3.8v2.7h-1V8.5h.9v.7c.1-.2.3-.4.5-.5.3-.2.6-.3.9-.3.4 0 .8.1 1.1.4.4.3.5.8.5 1.5v2.8zM102.3 9.3h-1.1v2.2c0 .6.2.9.6.9h.5v.8c-.2.1-.5.1-.8.1-.4 0-.7-.1-.9-.4-.2-.2-.3-.7-.3-1.2V9.3h-.7v-.8h.7v-.9l1-.3v1.1h1.1v.9zM107.7 13.1h-1v-2.6c0-.8-.3-1.2-.9-1.2-.5 0-.8.2-1 .7V13.2h-1V6.4h1v2.8c.3-.5.8-.7 1.4-.7.4 0 .8.1 1.1.4.3.3.5.9.5 1.5v2.7zM113 10.6v.5h-3.1c0 .5.2.8.4 1 .3.2.6.3 1 .3.5 0 .9-.1 1.2-.2l.2.7c-.4.2-1 .3-1.5.3-.7 0-1.3-.2-1.7-.6-.4-.4-.6-1-.6-1.7s.2-1.3.6-1.7c.4-.5.9-.7 1.6-.7.7 0 1.2.2 1.5.7.2.3.4.8.4 1.4m-1-.3c0-.3-.1-.6-.2-.8-.2-.3-.4-.4-.8-.4-.3 0-.6.1-.8.4-.2.2-.3.5-.3.8h2.1z"/></svg>