<svg version="1.1" id="Layer_1" xmlns="http://www.w3.org/2000/svg" x="0" y="0" viewBox="0 0 130 39" style="enable-background:new 0 0 130 39" xml:space="preserve"><style>.st1{fill:#fff;stroke:#fff;stroke-width:.2;stroke-miterlimit:10}.st7{opacity:.12;enable-background:new}</style><path d="M130 35.1c0 2.2-1.7 3.9-3.7 3.9H3.7c-2 0-3.7-1.7-3.7-3.9V3.9C0 1.8 1.7 0 3.7 0h122.5c2.1 0 3.7 1.8 3.7 3.9l.1 31.2"/><path class="st1" d="M45.7 10.1c0 .8-.2 1.4-.7 1.9-.5.6-1.3.9-2.1.9s-1.5-.3-2.1-.9c-.6-.6-.9-1.3-.9-2.2 0-.9.3-1.6.9-2.2.6-.6 1.3-.9 2.1-.9.4 0 .8.1 1.2.2.4.2.7.4.9.6l-.5.5c-.4-.5-.9-.7-1.6-.7-.6 0-1.1.2-1.6.6-.4.4-.7 1-.7 1.7s.2 1.2.7 1.7c.4.4 1 .6 1.6.6.6 0 1.2-.2 1.6-.6.3-.3.4-.7.5-1.2h-2.1v-.4h2.8c-.1.1 0 .3 0 .4zM50.1 7.7h-2.6v1.8h2.4v.7h-2.4V12h2.6v.7h-3.4V7h3.4v.7zM53.2 12.8h-.7V7.7h-1.6V7h4v.7h-1.6v5.1zM57.7 12.8V7h.7v5.8h-.7zM61.8 12.8H61V7.7h-1.6V7h4v.7h-1.6v5.1zM70.9 12c-.6.6-1.3.9-2.1.9s-1.6-.3-2.1-.9c-.6-.6-.9-1.3-.9-2.1s.3-1.6.9-2.1c.6-.6 1.3-.9 2.1-.9s1.5.3 2.1.9c.6.6.9 1.3.9 2.1-.1.8-.3 1.5-.9 2.1zm-3.7-.5c.4.4 1 .6 1.6.6s1.1-.2 1.6-.6c.4-.4.6-1 .6-1.7s-.2-1.2-.6-1.7c-.4-.4-1-.6-1.6-.6s-1.1.2-1.6.6c-.4.4-.6 1-.6 1.7s.2 1.3.6 1.7zM72.8 12.8V7h.9l2.8 4.5V7h.7v5.8h-.8L73.5 8v4.7h-.7z"/><path d="M65.6 21.2c-2.3 0-4.1 1.7-4.1 4.1 0 2.4 1.8 4.1 4.1 4.1s4.1-1.7 4.1-4.1c0-2.4-1.8-4.1-4.1-4.1zm0 6.6c-1.2 0-2.3-1-2.3-2.5s1.1-2.5 2.3-2.5 2.3 1 2.3 2.5c0 1.4-1 2.5-2.3 2.5zm-9-6.6c-2.3 0-4.1 1.7-4.1 4.1 0 2.4 1.8 4.1 4.1 4.1s4.1-1.7 4.1-4.1c.1-2.4-1.8-4.1-4.1-4.1zm0 6.6c-1.2 0-2.3-1-2.3-2.5s1.1-2.5 2.3-2.5c1.2 0 2.3 1 2.3 2.5.1 1.4-1 2.5-2.3 2.5zM46 22.4v1.7h4.2c-.1 1-.4 1.7-.9 2.2-.6.6-1.6 1.3-3.2 1.3-2.6 0-4.6-2.1-4.6-4.6s2-4.6 4.6-4.6c1.4 0 2.4.5 3.1 1.2l1.2-1.2c-1-1-2.4-1.8-4.4-1.8-3.5 0-6.5 2.9-6.5 6.4 0 3.5 2.9 6.4 6.5 6.4 1.9 0 3.3-.6 4.4-1.8 1.1-1.1 1.5-2.8 1.5-4.1 0-.4 0-.8-.1-1.1H46zm43.6 1.4c-.3-.9-1.4-2.6-3.5-2.6s-3.9 1.7-3.9 4.1c0 2.3 1.7 4.1 4.1 4.1 1.9 0 3-1.1 3.4-1.8l-1.4-.9c-.5.7-1.1 1.1-2 1.1-.9 0-1.6-.4-2-1.2l5.5-2.3-.2-.5zM84 25.2c0-1.6 1.2-2.4 2.1-2.4.7 0 1.3.4 1.5.9L84 25.2zm-4.4 3.9h1.8v-12h-1.8v12zm-3-7c-.5-.5-1.2-.9-2.2-.9-2 0-3.9 1.8-3.9 4.1s1.9 4.1 3.9 4.1c1 0 1.8-.4 2.2-.9h.1v.5c0 1.6-.8 2.4-2.2 2.4-1.1 0-1.8-.8-2.1-1.5l-1.6.7c.4 1.1 1.6 2.4 3.6 2.4 2.1 0 3.9-1.2 3.9-4.3v-7.4h-1.7v.8zm-2 5.7c-1.2 0-2.3-1-2.3-2.5 0-1.4 1-2.5 2.3-2.5 1.2 0 2.2 1.1 2.2 2.5-.1 1.4-1 2.5-2.2 2.5zM98 17.1h-4.3v12h1.8v-4.6H98c2 0 3.9-1.4 3.9-3.7s-1.9-3.7-3.9-3.7zm.1 5.8h-2.6v-4.1h2.6c1.3 0 2.1 1.1 2.1 2.1 0 .9-.8 2-2.1 2zm11.1-1.7c-1.3 0-2.6.6-3.2 1.8l1.6.7c.3-.7 1-.9 1.6-.9.9 0 1.9.6 1.9 1.5v.1c-.3-.2-1-.5-1.9-.5-1.7 0-3.5.9-3.5 2.7 0 1.6 1.4 2.6 3 2.6 1.2 0 1.9-.5 2.3-1.2h.1v.9h1.7v-4.6c0-1.9-1.6-3.1-3.6-3.1zm-.2 6.6c-.6 0-1.4-.3-1.4-1 0-.9 1-1.3 1.9-1.3.8 0 1.2.2 1.6.4-.1 1.1-1.1 1.9-2.1 1.9zm10.2-6.4-2.1 5.2h-.1l-2.1-5.2H113l3.2 7.3-1.8 4.1h1.9l4.9-11.4h-2zM103 29.1h1.8v-12H103v12z" style="fill:#fff"/><linearGradient id="SVGID_1_" gradientUnits="userSpaceOnUse" x1="20.992" y1="31.399" x2="4.831" y2="15.238" gradientTransform="matrix(1 0 0 -1 0 40.027)"><stop offset="0" style="stop-color:#00a0ff"/><stop offset=".007" style="stop-color:#00a1ff"/><stop offset=".26" style="stop-color:#00beff"/><stop offset=".512" style="stop-color:#00d2ff"/><stop offset=".76" style="stop-color:#00dfff"/><stop offset="1" style="stop-color:#00e3ff"/></linearGradient><path d="M10 7.5c-.2.3-.4.8-.4 1.4v21.3c0 .6.2 1.1.4 1.4l.1.1L22 19.8v-.2L10 7.5z" style="fill:url(#SVGID_1_)"/><linearGradient id="SVGID_2_" gradientUnits="userSpaceOnUse" x1="32.581" y1="20.526" x2="9.28" y2="20.526" gradientTransform="matrix(1 0 0 -1 0 40.027)"><stop offset="0" style="stop-color:#ffe000"/><stop offset=".409" style="stop-color:#ffbd00"/><stop offset=".775" style="stop-color:orange"/><stop offset="1" style="stop-color:#ff9c00"/></linearGradient><path d="m26 23.6-4-4v-.2l4-4 .1.1 4.7 2.7c1.3.8 1.3 2 0 2.8L26 23.6z" style="fill:url(#SVGID_2_)"/><linearGradient id="SVGID_3_" gradientUnits="userSpaceOnUse" x1="23.907" y1="18.316" x2="1.992" y2="-3.599" gradientTransform="matrix(1 0 0 -1 0 40.027)"><stop offset="0" style="stop-color:#ff3a44"/><stop offset="1" style="stop-color:#c31162"/></linearGradient><path d="M26.1 23.6 22 19.5l-12 12c.4.5 1.2.5 2 .1l14.1-8" style="fill:url(#SVGID_3_)"/><linearGradient id="SVGID_4_" gradientUnits="userSpaceOnUse" x1="7.027" y1="39.617" x2="16.813" y2="29.83" gradientTransform="matrix(1 0 0 -1 0 40.027)"><stop offset="0" style="stop-color:#32a071"/><stop offset=".069" style="stop-color:#2da771"/><stop offset=".476" style="stop-color:#15cf74"/><stop offset=".801" style="stop-color:#06e775"/><stop offset="1" style="stop-color:#00f076"/></linearGradient><path d="M26.1 15.4 12 7.4c-.8-.4-1.5-.4-2 .1l12 12 4.1-4.1z" style="fill:url(#SVGID_4_)"/><path d="m26 23.5-14 7.9c-.8.4-1.5.4-1.9 0l-.1.1.1.1c.4.4 1.1.4 1.9 0l14-8.1z" style="opacity:.2;enable-background:new"/><path class="st7" d="M10 31.4c-.3-.3-.4-.8-.4-1.4v.1c0 .6.2 1.1.4 1.4v-.1zM30.8 20.8 26 23.5l.1.1 4.7-2.7c.7-.4 1-.9 1-1.4 0 .5-.4.9-1 1.3z"/><path d="m12 7.6 18.8 10.7c.6.3 1 .8 1 1.2 0-.5-.3-1-1-1.4L12 7.4c-1.3-.8-2.4-.1-2.4 1.4V9c0-1.5 1.1-2.2 2.4-1.4z" style="opacity:.25;fill:#fff;enable-background:new"/></svg>