<?xml version="1.0" encoding="utf-8"?>
<!-- Generator: Adobe Illustrator 22.1.0, SVG Export Plug-In . SVG Version: 6.00 Build 0)  -->
<svg version="1.1" id="Layer_1" xmlns="http://www.w3.org/2000/svg" xmlns:xlink="http://www.w3.org/1999/xlink" x="0px" y="0px"
	 viewBox="0 0 130 39" style="enable-background:new 0 0 130 39;" xml:space="preserve">
<style type="text/css">
	.st0{fill:#FFFFFF;}
	.st1{fill:#FFFFFF;stroke:#FFFFFF;stroke-width:0.6178;stroke-miterlimit:10;}
	.st2{fill:url(#path64_2_);}
	.st3{fill:url(#path78_2_);}
	.st4{fill:url(#path88_2_);}
	.st5{fill:url(#path104_2_);}
</style>
<g>
	<path d="M130,35.1c0,2.2-1.7,3.9-3.7,3.9H3.7C1.7,39,0,37.3,0,35.1V3.9C0,1.8,1.7,0,3.7,0h122.5c2.1,0,3.7,1.8,3.7,3.9L130,35.1"/>
	<path class="st0" d="M28.5,19.3c0-3.1,2.6-4.7,2.7-4.7c-1.5-2.2-3.8-2.4-4.6-2.5c-1.9-0.2-3.8,1.1-4.8,1.1c-1,0-2.5-1.1-4.1-1.1
		c-2.1,0-4,1.2-5.1,3.1c-2.2,3.8-0.6,9.5,1.6,12.6c1.1,1.5,2.3,3.2,3.9,3.2c1.6-0.1,2.2-1,4.1-1c1.9,0,2.5,1,4.1,1
		c1.7,0,2.8-1.5,3.8-3.1c1.2-1.7,1.7-3.5,1.7-3.5C31.8,24.3,28.6,23.1,28.5,19.3"/>
	<path class="st0" d="M25.4,10c0.9-1.1,1.4-2.5,1.3-4c-1.2,0.1-2.8,0.9-3.7,1.9c-0.8,0.9-1.5,2.4-1.3,3.8
		C23.1,11.9,24.5,11.1,25.4,10"/>
	<path class="st0" d="M51.5,30.7h-2.2l-1.2-3.8h-4.2l-1.2,3.8h-2.2l4.2-13h2.6L51.5,30.7z M47.7,25.3l-1.1-3.4
		c-0.1-0.3-0.3-1.2-0.7-2.4h0c-0.1,0.6-0.3,1.4-0.6,2.4l-1.1,3.4H47.7z"/>
	<path class="st0" d="M62.3,25.9c0,1.6-0.4,2.9-1.3,3.8c-0.8,0.8-1.7,1.2-2.9,1.2c-1.2,0-2.1-0.4-2.7-1.3v4.9h-2.1V24.5
		c0-1,0-2-0.1-3.1h1.8l0.1,1.5h0c0.7-1.1,1.7-1.7,3.2-1.7c1.1,0,2,0.4,2.8,1.3C61.9,23.4,62.3,24.5,62.3,25.9 M60.1,26
		c0-0.9-0.2-1.7-0.6-2.3c-0.5-0.6-1.1-0.9-1.8-0.9c-0.5,0-1,0.2-1.4,0.5c-0.4,0.3-0.7,0.8-0.8,1.3c-0.1,0.3-0.1,0.5-0.1,0.6v1.6
		c0,0.7,0.2,1.3,0.6,1.7c0.4,0.5,1,0.7,1.6,0.7c0.8,0,1.4-0.3,1.8-0.9C59.9,27.8,60.1,27,60.1,26"/>
	<path class="st0" d="M73,25.9c0,1.6-0.4,2.9-1.3,3.8C71,30.5,70,31,68.9,31c-1.2,0-2.1-0.4-2.7-1.3v4.9h-2.1V24.5c0-1,0-2-0.1-3.1
		h1.8l0.1,1.5h0c0.7-1.1,1.7-1.7,3.2-1.7c1.1,0,2,0.4,2.8,1.3C72.7,23.4,73,24.5,73,25.9 M70.9,26c0-0.9-0.2-1.7-0.6-2.3
		c-0.4-0.6-1.1-0.9-1.8-0.9c-0.5,0-1,0.2-1.4,0.5c-0.4,0.3-0.7,0.8-0.8,1.3c-0.1,0.3-0.1,0.5-0.1,0.6v1.6c0,0.7,0.2,1.3,0.6,1.7
		c0.4,0.5,1,0.7,1.6,0.7c0.8,0,1.4-0.3,1.8-0.9C70.7,27.8,70.9,27,70.9,26"/>
	<path class="st0" d="M85.1,27.1c0,1.1-0.4,2-1.2,2.7c-0.8,0.8-2,1.1-3.5,1.1c-1.4,0-2.5-0.3-3.4-0.8l0.5-1.7c0.9,0.5,1.9,0.8,3,0.8
		c0.8,0,1.4-0.2,1.8-0.5c0.4-0.4,0.7-0.8,0.7-1.4c0-0.5-0.2-1-0.5-1.3c-0.4-0.4-1-0.7-1.8-1c-2.3-0.8-3.4-2.1-3.4-3.7
		c0-1.1,0.4-1.9,1.2-2.6c0.8-0.7,1.9-1,3.2-1c1.2,0,2.2,0.2,2.9,0.6l-0.5,1.7c-0.7-0.4-1.6-0.6-2.5-0.6c-0.7,0-1.3,0.2-1.7,0.5
		c-0.3,0.3-0.5,0.7-0.5,1.2c0,0.5,0.2,0.9,0.6,1.3c0.3,0.3,1,0.6,1.9,1c1.1,0.5,1.9,1,2.5,1.6C84.8,25.4,85.1,26.2,85.1,27.1"/>
	<path class="st0" d="M92,22.9h-2.3v4.6c0,1.2,0.4,1.7,1.2,1.7c0.4,0,0.7,0,0.9-0.1l0.1,1.6c-0.4,0.2-1,0.2-1.6,0.2
		c-0.8,0-1.5-0.3-1.9-0.8c-0.5-0.5-0.7-1.3-0.7-2.5v-4.7h-1.4v-1.6h1.4v-1.7l2-0.6v2.3H92V22.9z"/>
	<path class="st0" d="M102.3,26c0,1.4-0.4,2.6-1.2,3.5c-0.9,1-2,1.4-3.4,1.4c-1.4,0-2.5-0.5-3.3-1.4c-0.8-0.9-1.2-2.1-1.2-3.5
		c0-1.5,0.4-2.6,1.3-3.6c0.8-0.9,2-1.4,3.4-1.4c1.4,0,2.5,0.5,3.3,1.4C101.9,23.4,102.3,24.6,102.3,26 M100.2,26
		c0-0.9-0.2-1.6-0.6-2.2c-0.4-0.7-1.1-1.1-1.9-1.1c-0.8,0-1.5,0.4-1.9,1.1c-0.4,0.6-0.6,1.4-0.6,2.2c0,0.9,0.2,1.6,0.6,2.2
		c0.5,0.7,1.1,1.1,1.9,1.1c0.8,0,1.4-0.4,1.9-1.1C100,27.6,100.2,26.9,100.2,26"/>
	<path class="st0" d="M109.1,23.2c-0.2,0-0.4-0.1-0.7-0.1c-0.7,0-1.3,0.3-1.7,0.8c-0.3,0.5-0.5,1.1-0.5,1.9v4.9h-2.1v-6.4
		c0-1.1,0-2.1-0.1-2.9h1.8l0.1,1.8h0.1c0.2-0.6,0.6-1.1,1-1.5c0.5-0.3,1-0.5,1.5-0.5c0.2,0,0.4,0,0.5,0L109.1,23.2z"/>
	<path class="st0" d="M118.4,25.6c0,0.4,0,0.7-0.1,0.9h-6.2c0,0.9,0.3,1.6,0.9,2.1c0.5,0.4,1.2,0.7,2,0.7c0.9,0,1.8-0.1,2.5-0.4
		l0.3,1.4c-0.9,0.4-1.9,0.6-3.1,0.6c-1.5,0-2.6-0.4-3.4-1.3c-0.8-0.9-1.2-2-1.2-3.4c0-1.4,0.4-2.6,1.2-3.5c0.8-1,1.9-1.5,3.3-1.5
		c1.4,0,2.4,0.5,3.1,1.5C118.1,23.5,118.4,24.4,118.4,25.6 M116.4,25.1c0-0.6-0.1-1.1-0.4-1.6c-0.4-0.6-0.9-0.9-1.7-0.9
		c-0.7,0-1.2,0.3-1.7,0.8c-0.3,0.5-0.6,1-0.6,1.6H116.4z"/>
	<path class="st0" d="M46.7,13.1h-1.1L45,11.2H43l-0.6,1.9h-1.1l2.1-6.4h1.3L46.7,13.1z M44.9,10.4l-0.5-1.7
		c-0.1-0.2-0.2-0.6-0.3-1.2h0c-0.1,0.3-0.2,0.7-0.3,1.2l-0.5,1.7H44.9z"/>
	<path class="st0" d="M51.9,8.5l-1.7,4.6h-1l-1.7-4.6h1.1l0.8,2.4c0.1,0.4,0.2,0.8,0.3,1.2h0c0.1-0.3,0.2-0.7,0.3-1.2l0.8-2.4H51.9z
		"/>
	<path class="st0" d="M56.5,13.1h-0.9l-0.1-0.5h0c-0.3,0.4-0.8,0.6-1.3,0.6c-0.4,0-0.8-0.1-1.1-0.4c-0.2-0.3-0.4-0.6-0.4-0.9
		c0-0.6,0.2-1,0.7-1.3c0.5-0.3,1.1-0.4,2-0.4V10c0-0.6-0.3-0.9-1-0.9c-0.5,0-0.9,0.1-1.2,0.3l-0.2-0.7c0.4-0.3,1-0.4,1.6-0.4
		c1.2,0,1.8,0.6,1.8,1.9V12C56.4,12.5,56.5,12.8,56.5,13.1 M55.4,11.5v-0.7c-1.1,0-1.7,0.3-1.7,0.9c0,0.2,0.1,0.4,0.2,0.5
		c0.1,0.1,0.3,0.2,0.5,0.2c0.2,0,0.4-0.1,0.6-0.2c0.2-0.1,0.3-0.3,0.4-0.5L55.4,11.5z"/>
	<path class="st0" d="M59.4,7.1c0,0.2-0.1,0.3-0.2,0.4c-0.1,0.1-0.3,0.2-0.5,0.2c-0.2,0-0.3-0.1-0.4-0.2c-0.1-0.1-0.2-0.3-0.2-0.4
		c0-0.2,0.1-0.3,0.2-0.4c0.1-0.1,0.3-0.2,0.4-0.2c0.2,0,0.3,0.1,0.4,0.2C59.3,6.8,59.4,6.9,59.4,7.1 M59.2,13.1h-1V8.5h1V13.1z"/>
	<rect x="61.1" y="6.4" class="st0" width="1" height="6.7"/>
	<path class="st0" d="M67.4,13.1h-0.9l-0.1-0.5h0C66,13,65.6,13.2,65,13.2c-0.4,0-0.8-0.1-1.1-0.4c-0.2-0.3-0.4-0.6-0.4-0.9
		c0-0.6,0.2-1,0.7-1.3c0.5-0.3,1.1-0.4,2-0.4V10c0-0.6-0.3-0.9-1-0.9c-0.5,0-0.9,0.1-1.2,0.3l-0.2-0.7c0.4-0.3,1-0.4,1.6-0.4
		c1.2,0,1.8,0.6,1.8,1.9V12C67.3,12.5,67.3,12.8,67.4,13.1 M66.3,11.5v-0.7c-1.1,0-1.7,0.3-1.7,0.9c0,0.2,0.1,0.4,0.2,0.5
		c0.1,0.1,0.3,0.2,0.5,0.2c0.2,0,0.4-0.1,0.6-0.2c0.2-0.1,0.3-0.3,0.4-0.5L66.3,11.5z"/>
	<path class="st0" d="M73.5,10.7c0,0.8-0.2,1.4-0.6,1.9c-0.4,0.4-0.8,0.6-1.4,0.6c-0.7,0-1.1-0.3-1.4-0.8h0l-0.1,0.7H69
		c0-0.4,0-0.8,0-1.2V6.4h1v2.8c0.3-0.5,0.8-0.8,1.5-0.8c0.6,0,1,0.2,1.4,0.6C73.3,9.5,73.5,10,73.5,10.7 M72.4,10.8
		c0-0.4-0.1-0.8-0.3-1.1c-0.2-0.3-0.5-0.5-0.9-0.5c-0.3,0-0.5,0.1-0.7,0.2c-0.2,0.2-0.3,0.4-0.4,0.7c0,0.1,0,0.2,0,0.3v0.8
		c0,0.3,0.1,0.6,0.3,0.8c0.2,0.2,0.5,0.3,0.8,0.3c0.4,0,0.7-0.1,0.9-0.4C72.3,11.7,72.4,11.3,72.4,10.8"/>
	<rect x="75" y="6.4" class="st0" width="1" height="6.7"/>
	<path class="st0" d="M81.6,10.6c0,0.2,0,0.3,0,0.5h-3.1c0,0.5,0.2,0.8,0.4,1c0.3,0.2,0.6,0.3,1,0.3c0.5,0,0.9-0.1,1.2-0.2l0.2,0.7
		c-0.4,0.2-0.9,0.3-1.5,0.3c-0.7,0-1.3-0.2-1.7-0.6c-0.4-0.4-0.6-1-0.6-1.7c0-0.7,0.2-1.3,0.6-1.7c0.4-0.5,0.9-0.7,1.6-0.7
		c0.7,0,1.2,0.2,1.5,0.7C81.5,9.5,81.6,10,81.6,10.6 M80.6,10.3c0-0.3-0.1-0.6-0.2-0.8c-0.2-0.3-0.4-0.4-0.8-0.4
		c-0.3,0-0.6,0.1-0.8,0.4c-0.2,0.2-0.3,0.5-0.3,0.8H80.6z"/>
	<path class="st0" d="M90.1,10.8c0,0.7-0.2,1.3-0.6,1.7c-0.4,0.5-1,0.7-1.7,0.7c-0.7,0-1.2-0.2-1.6-0.7c-0.4-0.4-0.6-1-0.6-1.7
		c0-0.7,0.2-1.3,0.6-1.8c0.4-0.5,1-0.7,1.7-0.7c0.7,0,1.2,0.2,1.6,0.7C89.9,9.5,90.1,10.1,90.1,10.8 M89,10.8c0-0.4-0.1-0.8-0.3-1.1
		c-0.2-0.4-0.5-0.5-0.9-0.5c-0.4,0-0.7,0.2-0.9,0.5c-0.2,0.3-0.3,0.7-0.3,1.1c0,0.4,0.1,0.8,0.3,1.1c0.2,0.4,0.5,0.5,0.9,0.5
		c0.4,0,0.7-0.2,0.9-0.6C88.9,11.6,89,11.2,89,10.8"/>
	<path class="st0" d="M95.6,13.1h-1v-2.6c0-0.8-0.3-1.2-0.9-1.2c-0.3,0-0.5,0.1-0.7,0.3c-0.2,0.2-0.3,0.5-0.3,0.8v2.7h-1V9.8
		c0-0.4,0-0.8,0-1.3h0.9l0,0.7h0c0.1-0.2,0.3-0.4,0.5-0.5c0.3-0.2,0.6-0.3,0.9-0.3c0.4,0,0.8,0.1,1.1,0.4c0.4,0.3,0.5,0.8,0.5,1.5
		V13.1z"/>
	<path class="st0" d="M102.3,9.3h-1.1v2.2c0,0.6,0.2,0.9,0.6,0.9c0.2,0,0.3,0,0.5,0l0,0.8c-0.2,0.1-0.5,0.1-0.8,0.1
		c-0.4,0-0.7-0.1-0.9-0.4c-0.2-0.2-0.3-0.7-0.3-1.2V9.3h-0.7V8.5h0.7V7.6l1-0.3v1.1h1.1V9.3z"/>
	<path class="st0" d="M107.7,13.1h-1v-2.6c0-0.8-0.3-1.2-0.9-1.2c-0.5,0-0.8,0.2-1,0.7c0,0.1,0,0.2,0,0.4v2.8h-1V6.4h1v2.8h0
		c0.3-0.5,0.8-0.7,1.4-0.7c0.4,0,0.8,0.1,1.1,0.4c0.3,0.3,0.5,0.9,0.5,1.5V13.1z"/>
	<path class="st0" d="M113,10.6c0,0.2,0,0.3,0,0.5h-3.1c0,0.5,0.2,0.8,0.4,1c0.3,0.2,0.6,0.3,1,0.3c0.5,0,0.9-0.1,1.2-0.2l0.2,0.7
		c-0.4,0.2-1,0.3-1.5,0.3c-0.7,0-1.3-0.2-1.7-0.6c-0.4-0.4-0.6-1-0.6-1.7c0-0.7,0.2-1.3,0.6-1.7c0.4-0.5,0.9-0.7,1.6-0.7
		c0.7,0,1.2,0.2,1.5,0.7C112.8,9.5,113,10,113,10.6 M112,10.3c0-0.3-0.1-0.6-0.2-0.8c-0.2-0.3-0.4-0.4-0.8-0.4
		c-0.3,0-0.6,0.1-0.8,0.4c-0.2,0.2-0.3,0.5-0.3,0.8H112z"/>
</g>
</svg>
